<svg width="54" height="54" viewBox="0 0 54 54" fill="none" xmlns="http://www.w3.org/2000/svg">
<path d="M15.8852 0.188683C14.9373 0.469933 14.2602 0.85535 13.6143 1.50118C12.9477 2.16785 12.5623 2.79285 12.281 3.68868C12.0414 4.46993 11.9998 7.3241 12.2289 8.16785C12.4268 8.90743 12.8643 9.73035 13.3435 10.2512C13.656 10.5949 13.7498 10.772 13.7498 11.0637V11.4283L10.5831 12.4908C8.72893 13.1054 7.28101 13.647 7.07268 13.8033C6.59351 14.1574 6.16643 14.8137 6.09351 15.3345C5.99976 16.0012 6.08309 30.4283 6.18726 30.6887L6.27059 30.9283H3.94768C2.66643 30.9283 1.44768 30.9804 1.22893 31.0324C0.760176 31.1679 0.135176 31.8345 0.0518431 32.3033C0.0205931 32.4908 -0.000240247 34.3449 0.0205931 36.4179C0.0518431 40.0533 0.0622598 40.1991 0.270593 40.4804C0.385176 40.6366 0.645593 40.8762 0.833093 41.0012C1.17684 41.2408 1.17684 41.2408 5.73934 41.2408H10.3123V46.397V51.5533H6.87476H3.43726V52.4387V53.3241H26.6664H49.8956V52.4387V51.5533H47.4789L45.0518 51.5429L45.4581 51.3137C45.6768 51.1887 46.2602 50.8033 46.7498 50.4595C52.8018 46.2095 54.9893 38.2512 51.9477 31.5012C50.4998 28.2824 47.906 25.5845 44.7393 24.0116C44.1143 23.6991 43.3227 23.3658 42.9998 23.2616C42.6664 23.1574 42.3956 23.0429 42.3956 23.0012C42.3956 22.9699 42.5206 22.7095 42.6768 22.4283C42.9164 22.0012 42.9685 21.7929 42.9685 21.1887C42.9581 20.2929 42.6977 19.6679 42.0935 19.0741C41.6977 18.6887 40.906 18.3554 33.4268 15.3658L25.1977 12.0741L22.9164 11.6887C20.6664 11.3241 20.6248 11.3033 20.6248 11.0637C20.6248 10.9179 20.8331 10.5637 21.1143 10.2199C22.1248 8.98035 22.4581 7.73035 22.3643 5.5116C22.2914 3.60535 21.8956 2.60535 20.8018 1.52201C19.4685 0.1991 17.5831 -0.311317 15.8852 0.188683ZM18.6664 2.05326C19.3435 2.3866 19.9685 3.03243 20.2914 3.71993C20.5518 4.2616 20.5727 4.43868 20.6039 5.87618C20.6352 7.29285 20.6143 7.5116 20.406 8.06368C19.7914 9.70951 17.9268 10.647 16.2498 10.1574C15.1039 9.8241 14.1143 8.75118 13.8643 7.5741C13.6143 6.4491 13.7602 4.3241 14.1352 3.59493C14.5102 2.87618 15.4164 2.12618 16.2498 1.85535C16.7706 1.68868 18.1456 1.80326 18.6664 2.05326ZM16.6143 11.9595C17.1977 12.0429 18.0102 11.9804 18.6768 11.8137C18.9581 11.7408 18.9581 11.7408 18.9581 12.2512V12.7616L21.8435 13.2512L24.7289 13.7408L32.6977 16.9179C41.4893 20.4283 41.2498 20.3033 41.2498 21.1783C41.2498 21.5533 41.1873 21.6991 40.9373 21.9491C40.5935 22.3033 40.0935 22.4283 39.6352 22.2929C39.4581 22.2408 36.3123 21.0741 32.6248 19.6887L25.9373 17.1783H24.1664H22.3956V34.3658V51.5533H20.2081H18.0206V39.9908V28.4283H17.1873H16.3539V39.9908V51.5533H14.2185H12.0831V46.397V41.2408H12.3331C12.6352 41.2408 13.1873 40.8762 13.4789 40.4804C13.6873 40.1991 13.6977 40.0533 13.7289 36.3658C13.7498 33.8345 13.7289 32.4179 13.6456 32.1574C13.4998 31.647 13.0102 31.1679 12.4893 31.0324L12.0831 30.9179V24.0533V17.1783H11.1977H10.3123V23.5949C10.3123 29.3449 10.2914 30.0429 10.1456 30.3033C9.62476 31.1783 8.32268 31.1054 7.87476 30.1679C7.71851 29.8241 7.70809 29.1783 7.72893 22.6574C7.76018 15.647 7.76018 15.5116 7.96851 15.3033C8.10393 15.1783 9.59351 14.6262 11.8227 13.8762L15.4685 12.647L15.4998 12.1887C15.531 11.7824 15.5518 11.7512 15.7602 11.8137C15.8852 11.8449 16.2706 11.9179 16.6143 11.9595ZM30.4998 20.7408C34.8956 22.3866 35.2914 22.5533 34.9789 22.6262C33.5935 22.9908 32.6352 23.2824 31.8852 23.5845C29.0206 24.7512 26.4164 27.0012 24.6143 29.8762L24.0623 30.7512V24.8554V18.9491H24.8748C25.6664 18.9387 25.7602 18.9699 30.4998 20.7408ZM39.0935 24.1574C44.4581 24.6783 48.8331 28.0533 50.7706 33.1679C51.3539 34.6783 51.4998 35.6366 51.5102 37.7512C51.5102 39.2824 51.4685 39.9283 51.3227 40.6158C50.156 46.0116 46.0206 50.147 40.6248 51.3137C39.9373 51.4595 39.2914 51.5012 37.7602 51.5012C36.0414 51.4908 35.656 51.4595 34.7914 51.2512C32.2914 50.6262 30.1456 49.4699 28.3956 47.8033C22.7706 42.4387 22.6664 33.5741 28.1664 28.1158C30.7185 25.5741 33.9998 24.1887 37.7081 24.0741C37.906 24.0637 38.531 24.1054 39.0935 24.1574ZM9.73934 33.7512C7.72893 35.0949 7.52059 35.1991 6.87476 35.1991C6.22893 35.1991 6.02059 35.0949 4.01018 33.7512L2.44768 32.6991H6.87476H11.3018L9.73934 33.7512ZM3.42684 35.4387C5.42684 36.772 5.77059 36.9179 6.92684 36.9179C8.05184 36.9074 8.23934 36.8345 10.3539 35.4179C11.1352 34.8866 11.8435 34.4283 11.9268 34.397C12.0623 34.3554 12.0831 34.7199 12.0831 36.9595V39.5741H6.92684H1.77059V36.9595C1.77059 34.9074 1.80184 34.3658 1.90601 34.4283C1.96851 34.4699 2.65601 34.9283 3.42684 35.4387ZM24.4789 45.5845C25.6143 47.6158 27.5623 49.6158 29.7393 50.9804L30.656 51.5533H27.3643H24.0623V48.272C24.0623 46.4699 24.0831 44.9908 24.1039 44.9908C24.1248 44.9908 24.3018 45.2616 24.4789 45.5845Z" fill="white"/>
<path d="M36.3025 25.8971C34.3129 26.1471 31.9692 27.1471 30.4067 28.3971L30.0212 28.6991L30.2921 29.0012C30.4379 29.1783 30.6879 29.47 30.8442 29.6471L31.1358 29.9908L31.8962 29.4387C32.3233 29.1471 33.0421 28.72 33.5004 28.5012C34.3546 28.1054 36.1358 27.595 36.6775 27.595H36.9796V28.845V30.095H37.865H38.7504V28.8346V27.5741L39.3337 27.6471C42.8129 28.0741 46.1046 30.6991 47.4483 34.1054C47.6983 34.7304 48.115 36.4491 48.1254 36.8346C48.1254 36.9387 47.8025 36.97 46.8754 36.97H45.6254V37.8554V38.7408H46.8858H48.1358L48.0629 39.2304C47.8129 40.9804 47.0317 42.8658 46.0525 44.095C45.8754 44.3137 45.7296 44.5325 45.7296 44.5637C45.74 44.6575 46.8754 45.5637 46.9796 45.5637C47.1567 45.5637 48.0004 44.345 48.49 43.4179C50.9275 38.7096 50.0942 33.1262 46.365 29.3762C44.5733 27.5741 42.365 26.4283 39.8546 25.9804C39.0212 25.8346 37.115 25.7929 36.3025 25.8971Z" fill="white"/>
<path d="M28.4696 30.3033C27.4175 31.595 26.5217 33.4804 26.0842 35.272C25.855 36.2512 25.7717 38.4075 25.9279 39.47C26.3238 42.1262 27.5009 44.4908 29.3863 46.3554C33.1363 50.0846 38.7196 50.9179 43.4279 48.4804C44.355 47.9908 45.5738 47.1471 45.5738 46.97C45.5738 46.8658 44.6675 45.7304 44.5738 45.72C44.5425 45.72 44.3238 45.8658 44.105 46.0429C42.8759 47.0221 40.9904 47.8033 39.2509 48.0533L38.7509 48.1262V46.8762V45.6158H37.8654H36.98V46.8658C36.98 47.7929 36.9488 48.1158 36.855 48.1158C36.4592 48.1054 34.7404 47.6887 34.1154 47.4387C31.7196 46.4908 29.5634 44.4595 28.4904 42.147C28.0842 41.272 27.7613 40.1679 27.6571 39.3241L27.5842 38.7408H28.8446H30.105V37.8554V36.97H28.855H27.605V36.6679C27.605 36.1262 28.1154 34.345 28.5113 33.4908C28.73 33.0325 29.1571 32.3137 29.4488 31.8866L30.0009 31.1262L29.6571 30.8345C29.48 30.6679 29.1884 30.4179 29.0113 30.2825L28.6988 30.022L28.4696 30.3033Z" fill="white"/>
<path d="M36.9792 35.3032V38.7407H39.1147H41.2501V37.8553V36.9699H40.0001H38.7501V34.4178V31.8657H37.8647H36.9792V35.3032Z" fill="white"/>
<path d="M0 52.4387V53.3241H0.885416H1.78125L1.75 52.4595L1.71875 51.6054L0.864583 51.5741L0 51.5429V52.4387Z" fill="white"/>
<path d="M51.6354 51.6262C51.5937 51.6574 51.5625 52.0637 51.5625 52.5116V53.3241H52.4479H53.3333V52.4387V51.5533H52.5208C52.0729 51.5533 51.6667 51.5845 51.6354 51.6262Z" fill="white"/>
</svg>
