<svg width="54" height="54" viewBox="0 0 54 54" fill="none" xmlns="http://www.w3.org/2000/svg">
<g clip-path="url(#clip0_311_733)">
<path d="M25.8231 0.166708C25.1564 0.364625 24.3543 1.10421 24.0626 1.79171C23.7814 2.44796 23.7501 3.40629 23.9897 3.97921L24.1564 4.37504L22.5939 5.90629C21.7293 6.76046 20.9793 7.46879 20.9272 7.47921C20.8751 7.50004 20.6356 7.44796 20.4064 7.35421C19.7918 7.10421 18.8022 7.13546 18.1772 7.43754C17.5314 7.72921 16.8647 8.44796 16.6147 9.09379C16.3856 9.69796 16.4376 10.8125 16.7189 11.4063C17.4168 12.8542 19.2189 13.4792 20.6668 12.7709C22.021 12.1042 22.6564 10.5313 22.146 9.09379L21.9897 8.65629L23.6043 7.10421L25.2189 5.55212L25.7606 5.73962C26.0626 5.84379 26.5106 5.92712 26.771 5.92712C27.2085 5.92712 27.4376 5.86462 28.2918 5.51046L28.6147 5.38546L32.9481 8.70837L37.2918 12.0313L37.2085 12.3959C37.0626 13.1146 37.146 13.9375 37.4481 14.5313C37.9585 15.5834 38.9064 16.1459 40.146 16.1459C42.1356 16.1355 43.5418 14.0834 42.8335 12.2084L42.6356 11.7084L43.9585 10.3438L45.2814 8.96879L45.6876 9.11462C45.9168 9.19796 46.396 9.26046 46.771 9.26046C47.646 9.27087 48.3439 8.95837 48.9272 8.29171C50.6147 6.37504 49.2814 3.42712 46.7189 3.42712C44.7085 3.42712 43.3022 5.35421 43.9376 7.23962L44.146 7.85421L42.8439 9.23962C42.1251 10 41.5314 10.625 41.5106 10.625C41.5001 10.625 41.3126 10.5521 41.1147 10.4688C40.5106 10.2188 39.4064 10.2605 38.8022 10.573C38.521 10.7084 38.2501 10.7917 38.1876 10.7605C38.0731 10.6875 34.0522 7.59379 31.1564 5.35421C30.1356 4.57296 29.5522 4.04171 29.5731 3.94796C29.5939 3.86462 29.6356 3.51046 29.6668 3.15629C29.7293 2.22921 29.4793 1.54171 28.8126 0.885458C27.9897 0.072958 26.9481 -0.187458 25.8231 0.166708ZM27.3439 1.70837C28.3751 2.14587 28.3751 3.71879 27.3439 4.20837C26.4064 4.65629 25.396 4.01046 25.396 2.96879C25.396 2.41671 25.6043 2.05212 26.0731 1.77087C26.4689 1.52087 26.8543 1.51046 27.3439 1.70837ZM47.5418 5.21879C48.1251 5.67712 48.2918 6.44796 47.9168 7.05212C47.3647 7.96879 45.9376 7.90629 45.4897 6.94796C45.271 6.50004 45.271 6.25004 45.4585 5.78129C45.771 5.05212 46.9272 4.73962 47.5418 5.21879ZM20.3856 9.20837C20.6668 9.51046 20.7293 9.66671 20.7293 10.0521C20.7293 10.9375 20.2085 11.4896 19.3647 11.4896C18.2397 11.4896 17.5835 10.1146 18.3022 9.27087C18.6668 8.83337 18.9064 8.73962 19.521 8.79171C19.9585 8.82296 20.0939 8.88546 20.3856 9.20837ZM40.8751 12.0938C41.9376 12.9271 41.4376 14.5834 40.1147 14.5834C39.271 14.5834 38.7085 14.0417 38.7085 13.2396C38.7085 12.3855 39.2293 11.8855 40.1147 11.875C40.4481 11.875 40.6772 11.9375 40.8751 12.0938Z" fill="white"/>
<path d="M24.3959 11.4897C24.2709 11.5626 24.0834 11.7397 23.9792 11.8751C23.823 12.1147 23.8022 12.5835 23.7709 17.271C23.7501 21.5522 23.7188 22.4064 23.6042 22.3647C23.5209 22.3335 23.2605 22.2501 23.0209 22.1772C22.7917 22.1043 22.5522 21.9689 22.5001 21.8751C22.3022 21.5105 21.7397 21.3543 20.6355 21.3543H19.5938L19.3751 20.8647L19.1563 20.3751L19.8855 19.646C20.7188 18.7918 20.8334 18.5939 20.8334 18.0522C20.8334 17.4897 20.3022 16.7814 19.0834 15.7189C18.1147 14.8647 17.5522 14.948 16.3542 16.1043L15.6355 16.8022L15.1355 16.5939L14.6355 16.396L14.5834 15.198C14.5313 13.9064 14.448 13.698 13.9167 13.3751C13.6459 13.2085 13.3751 13.1772 12.1876 13.1772C10.6042 13.1772 10.3126 13.271 9.92716 13.8439C9.71883 14.1564 9.68758 14.323 9.68758 15.3022V16.4064L9.23966 16.5835C9.00008 16.6876 8.7605 16.771 8.70841 16.771C8.65633 16.771 8.25008 16.4272 7.81258 16.0001C6.59383 14.8126 6.15633 14.823 4.79175 16.1043C3.59383 17.2397 3.22925 17.948 3.55216 18.573C3.61466 18.698 4.00008 19.1355 4.39591 19.5418L5.12508 20.2814L4.93758 20.823L4.73966 21.3543H3.64591C2.75008 21.3543 2.48966 21.396 2.21883 21.5626C1.58341 21.948 1.5105 22.1772 1.5105 23.8022C1.5105 25.0835 1.54175 25.3022 1.71883 25.6251C2.05216 26.198 2.47925 26.3543 3.698 26.3543H4.75008L4.92716 26.8439L5.10425 27.323L4.37508 28.073C3.36466 29.1251 3.20841 29.6355 3.698 30.3543C3.84383 30.5626 3.95841 30.7814 3.95841 30.823C3.95841 30.8751 3.80216 31.3335 3.60425 31.8335C2.50008 34.7085 2.30216 38.2605 3.06258 41.2814C4.573 47.2397 9.36466 51.7918 15.3959 53.021C19.0834 53.771 23.2917 53.073 26.448 51.1876C28.2605 50.1147 28.6772 49.6355 28.2605 49.0835C27.8959 48.5939 27.5209 48.646 26.4272 49.3543C25.1459 50.1772 24.3647 50.5626 23.0938 50.9897C21.3022 51.5835 20.4688 51.7189 18.4897 51.7189C16.5105 51.7189 15.6772 51.5835 13.8855 50.9897C8.85425 49.3126 5.18758 44.9585 4.31258 39.5835C4.11466 38.3855 4.17716 35.6564 4.42716 34.5314C4.573 33.8647 5.06258 32.2501 5.17716 32.0522C5.20841 32.0001 5.33341 32.0626 5.45841 32.1772C5.78133 32.4793 6.28133 32.6147 6.66675 32.5001C6.84383 32.448 6.97925 32.4272 6.97925 32.448C6.97925 32.4689 6.84383 32.896 6.67716 33.4064C6.14591 34.9897 6.0105 35.9793 6.073 37.8647C6.1355 39.8751 6.40633 41.0418 7.18758 42.6772C9.323 47.1668 13.6251 49.896 18.5209 49.896C24.5626 49.896 29.6772 45.573 30.7917 39.5314C31.0417 38.1355 30.948 35.7189 30.5938 34.3439C30.0105 32.1355 28.9376 30.271 27.3022 28.6355C26.7501 28.0835 25.9272 27.3855 25.4792 27.0835C24.7709 26.6147 23.4167 25.9168 22.7917 25.698C22.6355 25.646 22.6251 25.5835 22.7084 25.3647C22.7709 25.2085 22.8126 24.7814 22.8126 24.4168C22.8126 23.6251 22.7084 23.646 24.1042 24.2293C25.8334 24.9585 27.3751 26.0418 28.8126 27.521C30.7292 29.5105 31.9688 31.8647 32.573 34.6876C32.8334 35.9376 32.8334 38.9689 32.5626 40.198C32.1251 42.2293 31.4376 43.8126 30.2605 45.5835C29.8126 46.2501 29.4792 46.8543 29.4792 47.0001C29.4792 47.3335 29.8855 47.7085 30.2501 47.7085C30.6147 47.7085 31.0209 47.3022 31.7292 46.2293C33.1042 44.146 33.9584 41.7918 34.323 39.0314L34.3855 38.5418H42.8751H51.3647L51.6147 38.2814C51.948 37.9585 51.948 37.5626 51.6147 37.2397C51.3855 37.0105 51.2813 36.9793 50.5209 36.9793H49.6876V33.646C49.6876 30.448 49.6772 30.3022 49.4792 30.1043C49.1667 29.7918 48.6147 29.823 48.3438 30.1668C48.1355 30.4376 48.1251 30.5626 48.1251 33.7085V36.9793H46.7188H45.3126L45.3334 26.5314L45.3647 16.0939L46.7501 16.0626L48.1251 16.0314V21.5939C48.1251 27.0626 48.1251 27.1668 48.3438 27.4376C48.6147 27.7814 49.1667 27.8126 49.4792 27.5001C49.6876 27.2918 49.6876 27.1564 49.6876 21.323C49.6876 15.5939 49.6772 15.3543 49.4792 15.0314C49.1772 14.5418 48.7397 14.4585 46.4688 14.5001C44.3438 14.5314 44.1876 14.573 43.9063 15.1668C43.7709 15.4585 43.7501 16.9064 43.7501 26.2397V36.9793H43.3855H43.0209V28.5626C43.0209 20.3855 43.0105 20.146 42.8126 19.823C42.698 19.6355 42.4792 19.448 42.323 19.4064C42.1667 19.3543 41.1042 19.323 39.9792 19.323C38.0626 19.323 37.9167 19.3335 37.6355 19.5418C37.4792 19.6564 37.2813 19.8751 37.2188 20.0105C37.1147 20.198 37.0834 22.1876 37.0834 28.6147V36.9793H36.7188H36.3542V26.448C36.3542 18.9064 36.323 15.8647 36.2397 15.698C35.948 15.1251 35.8542 15.1043 33.4376 15.1043C31.5313 15.1043 31.1563 15.1251 30.948 15.271C30.4272 15.646 30.4167 15.7397 30.4167 21.5314L30.4063 26.9272L30.0522 26.5105L29.6876 26.0939V22.396C29.6876 18.2085 29.6876 18.2293 28.9688 18.2293C28.698 18.2293 28.5105 18.3022 28.3751 18.448C28.1876 18.6564 28.1772 18.8855 28.1459 21.6772C28.1251 23.3335 28.0938 24.6876 28.073 24.6876C28.0417 24.6876 27.8022 24.5314 27.5313 24.3335C27.2501 24.1355 26.6563 23.771 26.198 23.521L25.3647 23.0626L25.3334 17.9897L25.3126 12.9168H26.7084H28.1042L28.1459 14.2605C28.1772 15.4064 28.2084 15.6355 28.3751 15.823C28.6355 16.1043 29.198 16.1147 29.4792 15.8335C29.6667 15.646 29.6876 15.4897 29.6876 13.8439V12.0626L29.3334 11.7085L28.9792 11.3543H26.8126C25.2709 11.3647 24.5626 11.396 24.3959 11.4897ZM12.9897 15.3647C13.0522 16.7189 13.1251 17.0835 13.4584 17.4585C13.6251 17.646 13.8126 17.8126 13.8751 17.8126C13.9272 17.8126 14.2917 17.948 14.6876 18.1251C15.8751 18.646 16.2501 18.5314 17.448 17.3022L17.9584 16.771L18.5626 17.3647C18.8959 17.698 19.1667 18.0105 19.1667 18.073C19.1667 18.1355 18.8334 18.5105 18.4376 18.9064C17.6667 19.6668 17.4792 20.0418 17.6147 20.573C17.7813 21.2397 18.2605 22.2501 18.5522 22.5522C18.8542 22.8543 18.8855 22.8647 20.0522 22.896L21.2501 22.9376V23.8647V24.7918H20.1355C18.6355 24.7918 18.5001 24.8751 18.0001 26.1043C17.3751 27.6251 17.3959 27.7189 18.3855 28.7397C18.8126 29.1876 19.1667 29.5835 19.1667 29.6355C19.1667 29.6876 18.8959 30.0001 18.573 30.3335L17.9792 30.9376L17.1876 30.1564C16.3647 29.3647 16.073 29.2085 15.4897 29.3022C15.1251 29.3543 13.9063 29.8543 13.5522 30.1043C13.2084 30.3439 13.0313 30.9897 13.0209 32.0001V32.896L12.5938 32.9689C12.3647 33.0105 11.9688 33.0105 11.7188 32.9793L11.2709 32.9064L11.2292 31.771C11.2084 30.823 11.1667 30.5939 10.9792 30.3439C10.698 29.9793 9.08341 29.271 8.5105 29.271C8.14591 29.271 8.02091 29.3543 7.29175 30.0626C6.34383 30.9793 6.29175 30.9897 5.573 30.1876L5.10425 29.6668L5.87508 28.8439C6.90633 27.771 6.93758 27.6043 6.3855 26.271C5.83341 24.9272 5.73966 24.8543 4.23966 24.7918L3.073 24.7397L3.04175 23.823L3.0105 22.9168H4.1355C5.71883 22.9168 5.77091 22.8855 6.448 21.2814C6.948 20.1147 6.8855 19.8751 5.80216 18.771L5.05216 18.0105L5.70841 17.3751L6.36466 16.7397L7.17716 17.5418C8.21883 18.5835 8.45841 18.6251 9.83341 18.0522C11.0938 17.521 11.1876 17.3751 11.2292 16.0105C11.2501 15.4272 11.2813 14.8855 11.3022 14.8126C11.3438 14.7189 11.573 14.6876 12.1563 14.7085L12.9688 14.7397L12.9897 15.3647ZM34.7917 26.823C34.7917 36.5001 34.7813 36.9793 34.6042 36.9793C34.448 36.9793 34.4063 36.8126 34.2917 35.8022C34.0626 33.6355 33.5105 31.8335 32.4897 29.9168L31.9792 28.9585V22.8126V16.6668H33.3855H34.7917V26.823ZM41.4584 28.9064V36.9793H40.0522H38.6459V28.9793C38.6459 24.573 38.6772 20.9376 38.7188 20.9064C38.7501 20.8647 39.3855 20.8335 40.1251 20.8335H41.4584V28.9064ZM21.5417 26.9376C22.0209 27.073 22.5834 27.2814 22.8022 27.3855C23.1563 27.573 23.1876 27.6251 23.1459 27.9376C23.0626 28.6668 23.9272 29.0939 24.4688 28.6043C24.6772 28.4168 24.698 28.4168 25.2397 28.8439C25.8438 29.3022 26.7501 30.2293 27.2292 30.8543L27.5209 31.2397L27.3022 31.521C27.0105 31.896 27.0313 32.2397 27.3542 32.5626C27.573 32.7918 27.6772 32.823 27.9792 32.7605C28.323 32.698 28.3438 32.7189 28.5417 33.146C28.8438 33.823 29.2397 35.2918 29.323 36.0105L29.3959 36.6668H28.1876C27.1147 36.6668 26.9584 36.6876 26.7709 36.8751C26.4584 37.1876 26.4897 37.7397 26.8334 38.0105C27.073 38.198 27.2605 38.2293 28.2397 38.2293C29.3438 38.2293 29.3751 38.2397 29.3751 38.4585C29.3751 38.9376 28.9792 40.5939 28.6772 41.3543L28.3855 42.1355L27.9792 42.1043C27.2292 42.0314 26.823 42.771 27.2917 43.3647L27.5001 43.6251L27.1042 44.1355C26.5938 44.7814 25.8126 45.5522 25.1667 46.0626L24.6563 46.4689L24.4272 46.2501C23.8959 45.7605 23.0417 46.198 23.1563 46.9168C23.2084 47.2605 23.198 47.271 22.6147 47.5314C21.9897 47.8022 20.5938 48.1668 19.7709 48.2814L19.2709 48.3439V47.1564C19.2709 46.1147 19.2501 45.948 19.0626 45.7501C18.7813 45.448 18.198 45.448 17.9167 45.7293C17.7292 45.9168 17.7084 46.073 17.7084 47.1355C17.7084 48.1668 17.6876 48.3335 17.5417 48.3335C17.1042 48.3335 15.2188 47.8751 14.5522 47.6147C13.8126 47.3126 13.8022 47.3126 13.8334 46.9585C13.9063 46.2085 13.0313 45.7189 12.5522 46.2501C12.448 46.3647 12.3126 46.4168 12.2292 46.3751C11.7813 46.1251 10.6147 45.0418 10.0938 44.396L9.47925 43.6251L9.68758 43.3647C9.95841 43.021 9.948 42.7085 9.67716 42.3543C9.48966 42.1147 9.3855 42.073 9.02091 42.1043L8.59383 42.1355L8.29175 41.3543C8.00008 40.5939 7.60425 38.9376 7.60425 38.4585C7.60425 38.2397 7.6355 38.2293 8.73966 38.2293C9.71883 38.2293 9.90633 38.198 10.1459 38.0105C10.4897 37.7397 10.5209 37.1876 10.2084 36.8751C10.0209 36.6876 9.86466 36.6668 8.79175 36.6668H7.573L7.64591 36.0626C7.7605 35.0939 8.12508 33.8647 8.60425 32.8335C9.073 31.8126 9.42716 31.2501 9.59383 31.2501C9.64591 31.2501 9.68758 31.7501 9.68758 32.3647C9.68758 33.6147 9.83341 34.021 10.3855 34.3022C10.7917 34.5105 12.0938 34.6043 13.073 34.4897C13.8334 34.396 13.9272 34.3647 14.2397 34.021L14.5834 33.646V32.5105C14.5834 31.271 14.5834 31.2814 15.2709 31.0105L15.698 30.8439L16.4688 31.6251C17.6876 32.8543 18.1563 32.8543 19.448 31.6355C20.5209 30.6251 20.8334 30.1772 20.8334 29.6668C20.8334 29.1147 20.7188 28.9272 19.8751 28.0626L19.1563 27.323L19.3438 26.9376L19.5313 26.5418L20.1042 26.6147C20.4167 26.6564 21.0626 26.8022 21.5417 26.9376Z" fill="white"/>
<path d="M10.8014 18.8022C8.50974 19.4272 6.96808 21.448 6.96808 23.823C6.94724 28.448 12.4889 30.7918 15.7806 27.5626C16.8847 26.4793 17.4785 24.948 17.3535 23.4689C17.1764 21.2293 15.6139 19.3647 13.4681 18.8022C12.7493 18.6147 11.4889 18.6147 10.8014 18.8022ZM13.666 20.5105C14.8431 21.073 15.666 22.2293 15.791 23.5001C15.9264 24.7501 15.2493 26.1668 14.2077 26.8647C13.1764 27.5418 11.7702 27.6876 10.7077 27.2084C10.0618 26.9272 9.20766 26.1251 8.89516 25.5105C8.10349 23.948 8.60349 21.8543 9.98891 20.8959C10.7493 20.3647 11.3222 20.198 12.291 20.2397C12.9368 20.2709 13.3118 20.3439 13.666 20.5105Z" fill="white"/>
<path d="M11.1982 21.7293C9.95858 22.4064 9.51067 23.7085 10.1044 24.896C11.1565 26.9689 14.2398 26.323 14.4482 23.9897C14.4898 23.4689 14.4586 23.3126 14.1982 22.8126C13.7502 21.9689 13.2086 21.6251 12.2607 21.5939C11.719 21.573 11.4273 21.6043 11.1982 21.7293ZM12.7086 23.3543C13.3127 24.0105 12.3752 24.9793 11.6877 24.396C11.3544 24.1251 11.3023 23.7397 11.5627 23.4064C11.8544 23.0418 12.3961 23.021 12.7086 23.3543Z" fill="white"/>
<path d="M17.948 36.896C17.4897 37.4064 14.4792 42.646 14.4792 42.9377C14.4792 43.3439 14.8126 43.646 15.2501 43.646C15.7084 43.646 15.7501 43.5939 17.3959 40.8022C18.0938 39.6147 18.7084 38.6147 18.7605 38.5835C18.8126 38.5627 19.5834 38.9689 20.4897 39.4897C22.2917 40.5418 22.6772 40.6564 23.0313 40.2189C23.2917 39.896 23.2813 39.5522 23.0001 39.2293C22.6355 38.8439 18.7917 36.6668 18.448 36.6668C18.2813 36.6668 18.073 36.771 17.948 36.896Z" fill="white"/>
<path d="M36.6147 40.3648C36.1356 40.8335 36.2397 41.0627 37.4689 42.3023L38.5835 43.4377L37.4689 44.5731C36.2397 45.8127 36.1147 46.0939 36.5939 46.5418C37.1043 47.021 37.3231 46.896 38.9377 45.2814C40.896 43.3231 40.896 43.5523 38.9272 41.5939C37.3022 39.9689 37.1043 39.8648 36.6147 40.3648Z" fill="white"/>
<path d="M42.0309 40.3648C41.5518 40.8335 41.6559 41.0627 42.8851 42.3127L43.9997 43.4377L42.9372 44.5106C41.7497 45.6981 41.6038 46.0106 41.9788 46.4897C42.1351 46.6877 42.2913 46.771 42.5413 46.771C42.833 46.771 43.0622 46.5835 44.4163 45.2189C45.8434 43.7814 45.958 43.6356 45.8955 43.3648C45.8538 43.1773 45.2809 42.5314 44.333 41.5835C42.708 39.9689 42.5205 39.8648 42.0309 40.3648Z" fill="white"/>
<path d="M47.6462 40.2293C47.3649 40.3648 47.1566 40.7918 47.2503 41.0835C47.2816 41.1981 47.792 41.7814 48.3649 42.3648L49.417 43.4377L48.4274 44.4481C47.8753 45.0106 47.3753 45.5731 47.3024 45.6981C47.042 46.1981 47.4483 46.771 48.0733 46.771C48.3337 46.771 48.6149 46.5418 49.8649 45.2814C51.0837 44.0522 51.3545 43.7293 51.3545 43.4793C51.3545 43.2398 51.0837 42.9168 49.8128 41.646C48.2608 40.0939 48.1149 40.0002 47.6462 40.2293Z" fill="white"/>
</g>
<defs>
<clipPath id="clip0_311_733">
<rect width="53.3333" height="53.3333" fill="white"/>
</clipPath>
</defs>
</svg>
