<svg width="49" height="50" viewBox="0 0 49 50" fill="none" xmlns="http://www.w3.org/2000/svg">
<path d="M21.0938 0.26046C20.8438 0.500042 20.8333 0.552128 20.8333 2.12504V3.72921L20.1354 3.95838C19.7396 4.08338 18.9688 4.40629 18.4063 4.66671L17.3854 5.13546L16.2604 4.03129C14.6458 2.43754 14.8542 2.38546 12.375 4.87504C9.88542 7.35421 9.9375 7.14588 11.5313 8.76046L12.6354 9.88546L12.1667 10.9063C11.9063 11.4688 11.5833 12.2396 11.4583 12.625L11.2292 13.3334H9.625C8.05208 13.3334 8 13.3438 7.76042 13.5938L7.5 13.8438V16.6667V19.4896L7.76042 19.7396C8 19.9896 8.05208 20 9.625 20H11.2292L11.4583 20.698C11.5833 21.0938 11.9063 21.8646 12.1667 22.4271L12.6354 23.448L11.5313 24.573C9.9375 26.1875 9.88542 25.9792 12.375 28.4584C14.8542 30.948 14.6458 30.8959 16.2604 29.3021L17.3854 28.198L18.4063 28.6667C18.9688 28.9271 19.7396 29.25 20.1354 29.375L20.8333 29.6042V31.2084C20.8333 32.7813 20.8438 32.8334 21.0938 33.073L21.3438 33.3334H24.1667H26.9896L27.2396 33.073C27.4896 32.8334 27.5 32.7813 27.5 31.2084V29.6042L28.2083 29.375C28.5938 29.25 29.3646 28.9271 29.9271 28.6667L30.9479 28.198L32.0729 29.3021C33.6875 30.8959 33.4792 30.948 35.9583 28.4584C38.4479 25.9792 38.3958 26.1875 36.8021 24.573L35.6979 23.448L36.1667 22.4271C36.4271 21.8646 36.75 21.0938 36.875 20.698L37.1042 20H38.7083C40.2813 20 40.3333 19.9896 40.5729 19.7396L40.8333 19.4896V16.6667V13.8438L40.5729 13.5938C40.3333 13.3438 40.2813 13.3334 38.7083 13.3334H37.1042L36.875 12.625C36.75 12.2396 36.4271 11.4688 36.1667 10.9063L35.6979 9.88546L36.8021 8.76046C38.3958 7.14588 38.4479 7.35421 35.9583 4.87504C33.4792 2.38546 33.6875 2.43754 32.0729 4.03129L30.9479 5.13546L29.9271 4.66671C29.3646 4.40629 28.5938 4.08338 28.2083 3.95838L27.5 3.72921V2.12504C27.5 0.552128 27.4896 0.500042 27.2396 0.26046L26.9896 4.19617e-05H24.1667H21.3438L21.0938 0.26046ZM25.8333 3.16671C25.8333 5.04171 25.8542 5.06254 27.2396 5.42713C27.8333 5.57296 28.7083 5.92713 29.6042 6.38546C30.6146 6.89588 31.1042 7.09379 31.2708 7.04171C31.4063 7.01046 31.9792 6.52088 32.5521 5.93754L33.5938 4.89588L34.7604 6.06254L35.9375 7.22921L34.8438 8.34379C34.1875 9.00004 33.75 9.53129 33.75 9.65629C33.75 9.77088 34.0729 10.4896 34.4583 11.2605C34.9167 12.1563 35.2604 13 35.4063 13.5938C35.7708 14.9792 35.7917 15 37.6667 15H39.1667V16.6667V18.3334H37.6667C35.8021 18.3334 35.7708 18.3542 35.4271 19.6875C35.2917 20.2292 34.9167 21.1459 34.4583 22.0521C33.9375 23.1042 33.7396 23.5938 33.7813 23.7709C33.8229 23.9063 34.3125 24.4792 34.8958 25.0521L35.9375 26.0938L34.7708 27.2605L33.6042 28.4375L32.4896 27.3438C31.8333 26.6875 31.3021 26.25 31.1771 26.25C31.0625 26.25 30.3438 26.573 29.5729 26.9584C28.6771 27.4167 27.8333 27.7605 27.2396 27.9063C25.8542 28.2709 25.8333 28.2917 25.8333 30.1667V31.6667H24.1667H22.5V30.1667C22.5 28.3125 22.4792 28.2709 21.1458 27.9271C20.6354 27.7917 19.6354 27.3855 18.7813 26.9584C17.7292 26.4375 17.2292 26.2396 17.0625 26.2813C16.9271 26.323 16.3542 26.8125 15.7813 27.3959L14.7396 28.4375L13.5729 27.2709L12.3958 26.1042L13.4896 24.9896C14.1458 24.3334 14.5833 23.8021 14.5833 23.6771C14.5833 23.5625 14.2604 22.8438 13.875 22.073C13.4167 21.1771 13.0729 20.3334 12.9271 19.7396C12.5625 18.3542 12.5417 18.3334 10.6667 18.3334H9.16667V16.6667V15H10.6667C12.5313 15 12.5625 14.9792 12.9063 13.6459C13.0417 13.1042 13.4167 12.1875 13.875 11.2813C14.3958 10.2292 14.5938 9.73963 14.5521 9.56254C14.5104 9.42713 14.0208 8.85421 13.4375 8.28129L12.3958 7.23963L13.5625 6.07296L14.7292 4.89588L15.8438 5.98963C16.5 6.64588 17.0313 7.08338 17.1563 7.08338C17.2708 7.08338 17.9896 6.76046 18.7604 6.37504C19.6563 5.91671 20.5 5.57296 21.0938 5.42713C22.4792 5.06254 22.5 5.04171 22.5 3.16671V1.66671H24.1667H25.8333V3.16671Z" fill="white"/>
<path d="M22.6041 6.78124C20.3437 7.17708 18.3853 8.23958 16.8645 9.88541C15.6874 11.1458 14.927 12.5312 14.4687 14.2708C14.1562 15.4167 14.1249 17.7812 14.4062 18.8958C14.8958 20.8333 15.7395 22.3229 17.1874 23.75C18.5728 25.125 20.0416 25.9479 21.9374 26.4271C23.052 26.7083 25.4166 26.6771 26.5624 26.3646C28.5103 25.8437 29.7812 25.1146 31.1978 23.6979C32.6145 22.2812 33.3437 21.0208 33.8749 19.0625C34.2082 17.8333 34.2082 15.5625 33.8749 14.3021C33.3853 12.4271 32.5624 10.9687 31.2082 9.625C29.8749 8.29166 28.3957 7.43749 26.5728 6.96874C25.6458 6.72916 23.4791 6.62499 22.6041 6.78124ZM25.4478 8.44791C29.9166 9.13541 33.052 13.3646 32.4062 17.8125C31.5312 23.75 24.9166 26.8854 19.8333 23.7604C15.4999 21.0937 14.5312 15.2812 17.7708 11.3437C19.5937 9.11458 22.552 8 25.4478 8.44791Z" fill="white"/>
<path d="M23.5935 11.0937C23.3435 11.3333 23.3331 11.3854 23.3331 12.8646C23.3331 14.1666 23.3122 14.375 23.1664 14.375C22.8851 14.375 21.9268 15.4271 21.7914 15.8958C21.4997 16.875 21.7081 17.6562 22.4476 18.3854C23.5101 19.4479 24.8331 19.4479 25.9164 18.3646C26.2081 18.0729 26.4581 17.75 26.4581 17.6666C26.4581 17.5208 26.7081 17.5 28.3851 17.5C30.3018 17.5 30.3226 17.5 30.5726 17.2396C30.9164 16.9062 30.9164 16.4271 30.5726 16.0937C30.3226 15.8333 30.3018 15.8333 28.3851 15.8333C26.7081 15.8333 26.4581 15.8125 26.4581 15.6666C26.4581 15.4583 25.3747 14.375 25.1664 14.375C25.0206 14.375 24.9997 14.1666 24.9997 12.8646C24.9997 11.3854 24.9893 11.3333 24.7393 11.0937C24.5831 10.9271 24.3643 10.8333 24.1664 10.8333C23.9685 10.8333 23.7497 10.9271 23.5935 11.0937ZM24.7393 16.0937C24.906 16.25 24.9997 16.4687 24.9997 16.6666C24.9997 16.8646 24.906 17.0833 24.7393 17.2396C24.2289 17.7604 23.3331 17.3958 23.3331 16.6666C23.3331 16.2396 23.7393 15.8333 24.1664 15.8333C24.3643 15.8333 24.5831 15.9271 24.7393 16.0937Z" fill="white"/>
<path d="M0.260417 35.25L0 35.5104V42.5V49.4896L0.260417 49.75L0.510417 50L15.75 49.9792C30.5521 49.9479 31 49.9375 31.4583 49.75C31.7188 49.6354 35.2708 47.8333 39.3646 45.7396C44.1875 43.2604 46.9583 41.7917 47.25 41.5313C47.5 41.3125 47.8333 40.875 47.9896 40.5417C48.2396 40.0417 48.2812 39.8125 48.2812 39.1146C48.2812 38.3542 48.2396 38.2083 47.8542 37.3854C47.3125 36.2604 46.9167 35.8125 46.1146 35.4271C45.2708 35.0208 44.6667 34.9375 43.8958 35.1354C43.5312 35.2292 40.8229 36.5417 37.375 38.2813L31.4583 41.2604L31.5417 40.9167C31.6875 40.2396 31.6146 39.1354 31.3854 38.6354C31.0729 37.9479 30.4896 37.3438 29.8125 37.0104L29.2188 36.7188L25.4792 36.6875L21.7292 36.6563L21.2292 36.1875C20.9479 35.9271 20.4062 35.5625 20.0208 35.3854L19.3229 35.0521L9.91667 35.0208L0.520833 34.9896L0.260417 35.25ZM9.16667 42.5V48.3333H5.41667H1.66667V42.5V36.6667H5.41667H9.16667V42.5ZM19.1042 36.7917C19.4062 36.875 19.7292 37.1146 20.1979 37.5938L20.8646 38.2813L24.9062 38.3333C28.7812 38.3854 28.9583 38.3958 29.2292 38.6042C29.7708 39.0104 29.9479 39.3438 29.9479 39.9896C29.9479 40.4896 29.8958 40.6563 29.6458 40.9792C29.1146 41.6771 29.1979 41.6667 23.75 41.6667H18.8438L18.5938 41.9271C18.4271 42.0833 18.3333 42.3021 18.3333 42.5C18.3333 42.6979 18.4271 42.9167 18.5938 43.0729L18.8438 43.3333H24.9583H31.0729L37.5417 40.0625C41.0938 38.2604 44.1562 36.7604 44.3438 36.7188C44.8021 36.625 45.4271 36.8229 45.75 37.1563C46.1042 37.5313 46.6667 38.7188 46.6667 39.0938C46.6667 39.5104 46.4271 40.0104 46.0833 40.3229C45.9167 40.4688 42.4062 42.3229 38.2812 44.4375L30.7812 48.2813L20.8125 48.3125L10.8333 48.3333V42.5V36.6667H14.75C17.4896 36.6667 18.8021 36.7083 19.1042 36.7917Z" fill="white"/>
</svg>
