<svg width="54" height="54" viewBox="0 0 54 54" fill="none" xmlns="http://www.w3.org/2000/svg">
<g clip-path="url(#clip0_311_750)">
<path d="M1.65605 2.22925C1.07271 2.43758 0.656047 2.78133 0.343547 3.31258L0.0518804 3.80217L0.0206304 11.9063C-0.000202903 19.9897 -0.000202892 20.0001 0.218547 20.5209C0.45813 21.0834 0.978964 21.6042 1.52063 21.8334C1.80188 21.948 2.73938 21.9792 6.09355 21.9792C10.1769 21.9792 10.3227 21.9688 10.5206 21.7709C10.781 21.5105 10.7915 21.0313 10.531 20.7188L10.3331 20.4688L6.14563 20.4167L1.95813 20.3647L1.76021 20.1147C1.57271 19.8855 1.5623 19.6147 1.5623 13.4272V6.97925H12.031H22.4998V8.6355C22.4998 10.3438 22.5935 10.8647 22.9165 11.0417C23.229 11.2084 23.6248 11.1667 23.854 10.9376C24.0623 10.7292 24.0727 10.6251 24.0415 7.18758L24.0102 3.66675L23.6977 3.20842C23.3331 2.698 22.8435 2.34383 22.3019 2.18758C21.6977 2.02092 2.13521 2.05217 1.65605 2.22925ZM22.2394 3.90633C22.4581 4.11467 22.4998 4.2605 22.4998 4.79175V5.41675H12.031H1.5623V4.83342C1.5623 4.33342 1.60396 4.21883 1.86438 3.948L2.16646 3.64592H12.0831H21.9894L22.2394 3.90633Z" fill="white"/>
<path d="M5.44803 9.68754C4.95844 9.88546 4.86469 10.5 5.26053 10.8855L5.51053 11.1459H12.0834C18.5105 11.1459 18.6459 11.1459 18.8543 10.9375C19.1668 10.625 19.1355 10.073 18.7918 9.80212C18.5209 9.58337 18.4376 9.58337 12.0939 9.59379C8.56261 9.59379 5.57303 9.63546 5.44803 9.68754Z" fill="white"/>
<path d="M28.708 9.80204C28.3643 10.0729 28.333 10.625 28.6455 10.9375C28.8539 11.1458 28.9893 11.1458 38.3435 11.1458H47.833L48.1351 11.4479C48.3955 11.7187 48.4372 11.8333 48.4372 12.3333V12.9166H42.8747C37.4164 12.9166 37.3122 12.9166 37.0414 13.1354C36.6976 13.4062 36.6664 13.9583 36.9789 14.2708C37.1872 14.4791 37.3226 14.4791 42.8122 14.4791H48.4372V20.0833C48.4372 26.3125 48.4685 26.0416 47.7289 26.25C47.5205 26.302 46.7497 26.3541 46.0205 26.3541C44.8226 26.3541 44.6664 26.375 44.4789 26.5625C44.2185 26.8229 44.208 27.3333 44.4685 27.5937C44.583 27.7083 44.8435 27.8333 45.0518 27.875C45.6872 27.9895 48.031 27.8645 48.4372 27.6875C48.9685 27.4583 49.458 27.0208 49.7185 26.5208C49.9476 26.0937 49.9476 26.0833 49.9789 18.9583C49.9997 13.5312 49.9789 11.7083 49.8747 11.3541C49.6976 10.6875 48.8643 9.87496 48.208 9.70829C47.8539 9.61454 45.208 9.58329 38.3539 9.58329C29.031 9.58329 28.9893 9.58329 28.708 9.80204Z" fill="white"/>
<path d="M7.8963 13.0731C7.51088 13.2814 7.40672 13.7918 7.68797 14.1564L7.88588 14.4272L12.0109 14.4585C16.0317 14.4793 16.1463 14.4793 16.3546 14.271C16.6671 13.9585 16.6359 13.4064 16.2921 13.1356C16.0213 12.9272 15.9067 12.9168 12.0942 12.9168C8.87547 12.9272 8.12547 12.9481 7.8963 13.0731Z" fill="white"/>
<path d="M25.4172 12.9792C22.313 13.3542 19.7297 14.3021 17.4692 15.9063C16.3755 16.6771 14.5942 18.4583 13.8234 19.5521C12.5109 21.3958 11.4692 23.8854 11.0838 26.0938C10.813 27.6354 10.8338 30.1146 11.1255 31.6354C12.2609 37.3854 16.2817 41.9688 21.7922 43.7917C23.9588 44.5 26.7609 44.75 28.8755 44.4063L29.2609 44.3542L29.2922 47.0104L29.3234 49.6667L29.6359 50.125C30.0109 50.6458 30.5005 51 31.0526 51.1458C31.313 51.2188 34.9276 51.2396 41.5317 51.2292C52.7192 51.1979 51.8547 51.25 52.5942 50.5104C53.3234 49.7813 53.2817 50.4063 53.313 41.4271C53.3338 33.3438 53.3338 33.3333 53.1151 32.8125C52.8755 32.25 52.3547 31.7292 51.813 31.5C51.5317 31.3854 50.5317 31.3542 46.8755 31.3542H42.2817L42.3651 30.6458C42.5005 29.4896 42.438 27.2188 42.2401 26.0938C41.5005 21.7917 38.8963 17.8438 35.2609 15.5C33.563 14.3958 31.2922 13.5104 29.3755 13.1875C28.3859 13.0104 26.1047 12.8958 25.4172 12.9792ZM29.2192 14.7396C34.2192 15.6146 38.563 19.3854 40.188 24.2813C40.7088 25.875 40.8755 27 40.8651 28.9063C40.8547 29.8229 40.8026 30.7396 40.7609 30.9375L40.6672 31.3021H39.7922C39.2609 31.3021 38.9172 31.2604 38.9276 31.1979C39.2817 28.9375 39.1151 26.6771 38.4276 24.6771C37.9172 23.1875 36.7609 21.2188 36.2817 21.0313C35.9484 20.9063 35.5317 21.0938 35.313 21.4896C35.1359 21.8125 35.063 21.6458 36.0213 23.2083C36.6151 24.1771 37.0942 25.4063 37.3442 26.625C37.5526 27.625 37.5838 29.5521 37.4067 30.5938L37.2713 31.3542H34.188C30.7817 31.3542 30.6151 31.3854 29.9692 32.0417C29.3338 32.6875 29.3234 32.6875 29.2713 36.1458L29.2192 39.3229L28.6984 39.4583C27.9172 39.6667 25.5422 39.6458 24.5422 39.4375C23.313 39.1667 22.0838 38.6875 21.1255 38.1042C19.7088 37.2396 19.6984 37.2396 19.3859 37.4063C19.0109 37.6146 18.8234 38.0313 18.9484 38.3646C19.1776 38.9688 21.7713 40.3438 23.4692 40.7813C25.0005 41.1667 26.4276 41.2917 27.813 41.1458C28.4588 41.0833 29.0317 41.0208 29.1047 41.0104C29.2401 40.9896 29.3234 42.5938 29.188 42.7292C28.9901 42.9271 26.6984 43.0625 25.438 42.9375C18.9588 42.3021 13.9067 37.7083 12.6463 31.2917C12.3651 29.9063 12.3963 27.375 12.6984 25.9375C13.7713 20.8646 17.4067 16.8021 22.2713 15.2188C23.1255 14.9375 24.3442 14.6875 25.5213 14.5417C26.1776 14.4583 28.2609 14.5729 29.2192 14.7396ZM51.5109 33.1771C51.7297 33.3854 51.7713 33.5313 51.7713 34.0625V34.6875H41.3026H30.8338V34.0417C30.8338 33.5208 30.8755 33.3542 31.063 33.1563L31.2817 32.9167H41.2713H51.2609L51.5109 33.1771ZM51.7713 42.6667V49.0833L51.4692 49.3854L51.1672 49.6875H41.2505H31.3442L31.0942 49.4271L30.8338 49.1771V42.7083V36.25H41.3026H51.7713V42.6667Z" fill="white"/>
<path d="M25.3959 16.3541C21.3751 16.8125 17.8959 19.0625 15.8855 22.5C13.7917 26.0937 13.6563 30.4791 15.5209 34.2187C16.5417 36.2708 17.0626 36.802 17.6771 36.4062C17.8126 36.3125 17.9792 36.125 18.0417 35.9895C18.1667 35.7083 18.1355 35.6354 17.3126 34.2916C16.2917 32.6145 15.8021 30.8125 15.8126 28.6979C15.8126 27.2916 15.9584 26.3958 16.3646 25.1979C17.6251 21.5104 20.9376 18.6875 24.7917 18.0104C25.8438 17.8333 27.7813 17.8541 28.7917 18.0729C30.0001 18.3229 31.2396 18.802 32.2084 19.3958C33.7709 20.3541 33.6042 20.2812 33.9271 20.1041C34.323 19.8854 34.5105 19.4687 34.3855 19.1354C34.1875 18.6354 32.1875 17.4791 30.5938 16.9479C29.0105 16.4166 26.948 16.177 25.3959 16.3541Z" fill="white"/>
<path d="M26.4066 19.6876C26.0003 19.8438 25.8857 20.1042 25.8961 20.8647C25.8961 21.4897 25.9274 21.6147 26.1357 21.7813C26.2711 21.8959 26.5107 21.9792 26.667 21.9792C26.8232 21.9792 27.0628 21.8959 27.1982 21.7813C27.4066 21.6147 27.4378 21.4897 27.4378 20.8542C27.4482 20.2397 27.4066 20.073 27.2399 19.9063C26.9795 19.6563 26.6774 19.573 26.4066 19.6876Z" fill="white"/>
<path d="M21.4058 23.0208C21.0828 23.1458 20.9058 23.4166 20.9058 23.7604C20.9058 24.0312 21.1662 24.3437 22.6974 25.875C24.3849 27.5625 24.4891 27.6979 24.3745 27.9166C24.1662 28.302 24.2183 29.3124 24.4787 29.8437C25.2808 31.4895 27.687 31.6458 28.6662 30.1041L28.9683 29.6354L32.1349 29.5833C35.2287 29.5312 35.312 29.5208 35.5308 29.302C35.812 29.0208 35.8328 28.5208 35.5724 28.2291C35.3953 28.0312 35.2599 28.0208 32.2183 28.0208H29.062L28.7391 27.5C28.2808 26.75 27.5724 26.3541 26.687 26.3541C26.3224 26.3541 25.9266 26.4062 25.812 26.4687C25.6141 26.5729 25.4162 26.4062 23.812 24.8125C22.8328 23.8437 21.937 23.0208 21.8224 22.9895C21.7078 22.9583 21.5203 22.9687 21.4058 23.0208ZM27.2599 28.1458C27.8953 28.7395 27.2078 29.8854 26.3849 29.5729C26.0099 29.4374 25.8433 29.177 25.8328 28.7604C25.8328 28.0104 26.7078 27.625 27.2599 28.1458Z" fill="white"/>
<path d="M17.7601 28.2293C17.4997 28.5209 17.5205 29.021 17.8018 29.3022C17.9893 29.5001 18.1455 29.5314 18.7601 29.5314C19.4059 29.5314 19.5205 29.5001 19.6976 29.2814C19.958 28.9689 19.9476 28.4897 19.6872 28.2293C19.3851 27.9272 18.0309 27.9272 17.7601 28.2293Z" fill="white"/>
<path d="M26.1361 35.7187C25.9278 35.8853 25.8966 36.0103 25.8966 36.6666C25.8861 37.3645 25.907 37.427 26.1778 37.6666C26.532 37.9687 26.7611 37.9791 27.1153 37.7083C27.4486 37.4478 27.5736 36.7812 27.407 36.1666C27.2299 35.5208 26.6361 35.3124 26.1361 35.7187Z" fill="white"/>
<path d="M34.4788 39.0626C34.1663 39.3751 34.1975 39.9272 34.5413 40.198C34.8121 40.4167 34.9059 40.4167 41.2184 40.4167C46.6246 40.4167 47.6559 40.3959 47.9059 40.2605C48.385 40.0209 48.4684 39.573 48.1142 39.1251L47.9059 38.8542H41.2913C34.8225 38.8542 34.6871 38.8542 34.4788 39.0626Z" fill="white"/>
<path d="M36.9993 42.3958C36.666 42.7083 36.6868 43.25 37.0514 43.5416C37.3222 43.75 37.3952 43.7604 41.3639 43.7291C45.8118 43.6979 45.6556 43.7187 45.791 43.052C45.8431 42.7812 45.8014 42.6666 45.5931 42.4583L45.3223 42.1875H41.2702C37.3431 42.1875 37.2181 42.1979 36.9993 42.3958Z" fill="white"/>
<path d="M34.499 45.7605C34.1761 46.1042 34.1969 46.5938 34.5407 46.8646C34.8115 47.0834 34.9053 47.0834 41.3219 47.0834H47.8219L48.0719 46.823C48.2178 46.6875 48.3323 46.448 48.3323 46.3021C48.3323 46.1563 48.2178 45.9167 48.0719 45.7813L47.8219 45.5209H41.2698H34.7178L34.499 45.7605Z" fill="white"/>
<path d="M5.46908 16.3646C4.95866 16.6562 4.86491 17.0937 5.21908 17.5417L5.42741 17.8125H9.12533C12.6774 17.8125 12.8232 17.8021 13.0212 17.6042C13.2816 17.3437 13.292 16.8646 13.0316 16.5521L12.8337 16.3021L9.25033 16.2812C6.77116 16.2604 5.61491 16.2917 5.46908 16.3646Z" fill="white"/>
<path d="M41.3853 17.1875C40.9269 17.375 40.7915 18.0834 41.1457 18.4375C41.3436 18.6355 41.4894 18.6459 43.3749 18.6459H45.4061L45.6144 18.375C45.7394 18.2188 45.8332 18.0313 45.8332 17.9584C45.8332 17.6875 45.5936 17.3125 45.3436 17.198C45.0415 17.0625 41.729 17.0521 41.3853 17.1875Z" fill="white"/>
<path d="M43.5938 20.5209C43.0833 20.7188 42.9271 21.3751 43.2813 21.7709C43.4479 21.948 43.6042 21.9792 44.4375 21.9792C45.3542 21.9792 45.4167 21.9688 45.6146 21.7084C45.7396 21.5522 45.8333 21.3647 45.8333 21.2917C45.8333 20.9897 45.5729 20.6251 45.2813 20.5209C44.9167 20.3959 43.8958 20.3959 43.5938 20.5209Z" fill="white"/>
<path d="M4.84282 29.8334C4.36365 30.0417 3.86365 30.5001 3.61365 30.9792C3.38449 31.4063 3.38449 31.4063 3.35324 38.5834C3.32199 46.6772 3.30115 46.3855 4.09282 47.1667C4.8949 47.9584 4.31157 47.9167 14.8949 47.9167C24.3012 47.9167 24.3428 47.9167 24.6241 47.698C24.9678 47.4272 24.9991 46.8751 24.6866 46.5626C24.4782 46.3542 24.3428 46.3542 14.9887 46.3542H5.49907L5.19699 46.0522L4.8949 45.7501V40.1667V34.5938L7.19699 34.5626C9.46782 34.5313 9.49907 34.5313 9.69699 34.2813C9.9574 33.9688 9.94699 33.4897 9.68657 33.2292C9.48865 33.0313 9.34282 33.0209 7.17615 33.0209H4.87407L4.91574 32.3334C4.97824 31.3022 5.0824 31.2501 6.82199 31.2501C8.25949 31.2501 8.79074 31.1459 8.9574 30.8334C9.12407 30.5209 9.0824 30.1251 8.85324 29.8959C8.66574 29.7084 8.50949 29.6876 6.90532 29.6876C5.69699 29.698 5.06157 29.7397 4.84282 29.8334Z" fill="white"/>
<path d="M7.71846 38.2917C7.46846 38.6042 7.44763 38.7396 7.61429 39.1042C7.81221 39.5209 8.17679 39.6042 9.73929 39.5625C11.0935 39.5313 11.1768 39.5209 11.3643 39.2813C11.6351 38.948 11.6143 38.5209 11.3226 38.25C11.0935 38.0313 10.9789 38.0209 9.51012 38.0209H7.92679L7.71846 38.2917Z" fill="white"/>
<path d="M7.7395 41.625C7.53117 41.8334 7.4895 41.948 7.54159 42.2188C7.677 42.8646 7.64575 42.8646 10.7291 42.8959L13.5416 42.9271L13.802 42.6667C14.1353 42.3334 14.1458 41.8855 13.8228 41.5834C13.5833 41.3646 13.5103 41.3542 10.7916 41.3542H8.01034L7.7395 41.625Z" fill="white"/>
</g>
<defs>
<clipPath id="clip0_311_750">
<rect width="53.3333" height="53.3333" fill="white"/>
</clipPath>
</defs>
</svg>
