<?xml version="1.0" encoding="UTF-8"?>
<svg xmlns="http://www.w3.org/2000/svg" xmlns:xlink="http://www.w3.org/1999/xlink" width="50px" height="50px" viewBox="0 0 50 50" version="1.1">
<g id="surface1">
<path style=" stroke:none;fill-rule:nonzero;fill:rgb(24.705882%,39.607844%,65.098041%);fill-opacity:1;" d="M 48.273438 25 C 48.273438 12.148438 37.851562 1.726562 25 1.726562 C 12.148438 1.726562 1.726562 12.148438 1.726562 25 C 1.726562 37.851562 12.148438 48.273438 25 48.273438 C 37.851562 48.273438 48.273438 37.851562 48.273438 25 Z M 48.273438 25 "/>
<path style=" stroke:none;fill-rule:nonzero;fill:rgb(100%,100%,100%);fill-opacity:1;" d="M 21.464844 17.34375 C 21.464844 18.019531 21.464844 21.019531 21.464844 21.019531 L 18.773438 21.019531 L 18.773438 25.507812 L 21.464844 25.507812 L 21.464844 37.816406 L 26.992188 37.816406 L 26.992188 25.5 L 30.699219 25.5 C 30.699219 25.5 31.046875 23.34375 31.21875 20.992188 C 30.738281 20.992188 27.019531 20.992188 27.019531 20.992188 C 27.019531 20.992188 27.019531 18.382812 27.019531 17.917969 C 27.019531 17.464844 27.617188 16.84375 28.21875 16.84375 C 28.808594 16.84375 30.0625 16.84375 31.226562 16.84375 C 31.226562 16.238281 31.226562 14.117188 31.226562 12.171875 C 29.671875 12.171875 27.910156 12.171875 27.136719 12.171875 C 21.328125 12.183594 21.464844 16.671875 21.464844 17.34375 Z M 21.464844 17.34375 "/>
</g>
</svg>
