<?xml version="1.0" encoding="UTF-8"?>
<svg xmlns="http://www.w3.org/2000/svg" xmlns:xlink="http://www.w3.org/1999/xlink" width="50px" height="50px" viewBox="0 0 50 50" version="1.1">
<g id="surface1">
<path style=" stroke:none;fill-rule:nonzero;fill:rgb(100%,0%,0%);fill-opacity:1;" d="M 0 25 C 0 11.191406 11.191406 0 25 0 C 38.808594 0 50 11.191406 50 25 C 50 38.808594 38.808594 50 25 50 C 11.191406 50 0 38.808594 0 25 Z M 0 25 "/>
<path style=" stroke:none;fill-rule:nonzero;fill:rgb(100%,100%,100%);fill-opacity:1;" d="M 37.777344 18.828125 C 37.46875 17.648438 36.566406 16.71875 35.417969 16.40625 C 33.339844 15.832031 25 15.832031 25 15.832031 C 25 15.832031 16.660156 15.832031 14.582031 16.40625 C 13.433594 16.71875 12.53125 17.648438 12.222656 18.828125 C 11.667969 20.960938 11.667969 25.417969 11.667969 25.417969 C 11.667969 25.417969 11.667969 29.871094 12.222656 32.007812 C 12.53125 33.183594 13.433594 34.113281 14.582031 34.429688 C 16.660156 35 25 35 25 35 C 25 35 33.339844 35 35.417969 34.429688 C 36.566406 34.113281 37.46875 33.183594 37.777344 32.007812 C 38.332031 29.871094 38.332031 25.417969 38.332031 25.417969 C 38.332031 25.417969 38.332031 20.960938 37.777344 18.828125 "/>
<path style=" stroke:none;fill-rule:nonzero;fill:rgb(100%,0%,0%);fill-opacity:1;" d="M 22.5 30 L 22.5 21.667969 L 29.167969 25.832031 Z M 22.5 30 "/>
</g>
</svg>
